<?xml version="1.0" encoding="utf-8"?>
<!-- Generator: Adobe Illustrator 19.1.0, SVG Export Plug-In . SVG Version: 6.00 Build 0)  -->
<svg version="1.1" id="Livello_1" xmlns="http://www.w3.org/2000/svg" xmlns:xlink="http://www.w3.org/1999/xlink" x="0px" y="0px"
	 viewBox="0 0 150 150" style="enable-background:new 0 0 150 150;" xml:space="preserve">
<style type="text/css">
	.st0{fill:#E9E9EA;}
	.st1{fill:#4D4D4D;}
	.st2{fill:#B1B1B1;}
	.st3{fill:#7EBB52;}
	.st4{fill:#E99B0A;}
</style>
<g>
	<circle class="st0" cx="74.8" cy="75.6" r="73.4"/>
	<path class="st1" d="M74.8,150c-41,0-74.4-33.4-74.4-74.4S33.7,1.1,74.8,1.1c41,0,74.4,33.4,74.4,74.4S115.8,150,74.8,150z
		 M74.8,3.1C34.8,3.1,2.3,35.6,2.3,75.6c0,39.9,32.5,72.4,72.4,72.4s72.4-32.5,72.4-72.4C147.2,35.6,114.7,3.1,74.8,3.1z"/>
</g>
<path class="st2" d="M74.8,142.9L74.8,142.9c-1.4,0-2.7,0-4.1-0.1l0.1-1c1.3,0.1,2.6,0.1,4,0.1L74.8,142.9z M78.9,142.7l-0.1-1
	c1.3-0.1,2.7-0.2,4-0.4l0.1,1C81.6,142.5,80.2,142.6,78.9,142.7z M66.7,142.4c-1.3-0.2-2.7-0.4-4-0.6l0.2-1c1.3,0.2,2.6,0.4,4,0.6
	L66.7,142.4z M86.9,141.8l-0.2-1c1.3-0.2,2.6-0.5,3.9-0.8l0.2,1C89.6,141.2,88.3,141.5,86.9,141.8z M58.7,140.9
	c-1.3-0.3-2.6-0.7-3.9-1.1l0.3-1c1.3,0.4,2.6,0.8,3.9,1.1L58.7,140.9z M94.8,139.8l-0.3-1c1.3-0.4,2.5-0.8,3.8-1.3l0.4,0.9
	C97.4,139,96.1,139.4,94.8,139.8z M50.9,138.5c-1.3-0.5-2.5-1-3.8-1.6l0.4-0.9c1.2,0.5,2.5,1.1,3.7,1.5L50.9,138.5z M102.4,136.9
	L102,136c1.2-0.5,2.4-1.1,3.6-1.8l0.5,0.9C104.9,135.8,103.6,136.4,102.4,136.9z M43.5,135.2c-1.2-0.6-2.4-1.3-3.5-2l0.5-0.9
	c1.1,0.7,2.3,1.4,3.5,2L43.5,135.2z M109.6,133.2l-0.5-0.9c1.1-0.7,2.3-1.4,3.4-2.2l0.6,0.8C111.9,131.7,110.7,132.5,109.6,133.2z
	 M36.6,131c-1.1-0.8-2.2-1.6-3.3-2.4l0.6-0.8c1,0.8,2.1,1.6,3.2,2.4L36.6,131z M116.3,128.5l-0.6-0.8c1-0.8,2.1-1.7,3.1-2.6l0.7,0.7
	C118.4,126.8,117.3,127.7,116.3,128.5z M30.2,126c-1-0.9-2-1.8-3-2.8l0.7-0.7c0.9,0.9,1.9,1.9,2.9,2.7L30.2,126z M122.3,123.1
	l-0.7-0.7c0.9-0.9,1.9-1.9,2.7-2.9l0.7,0.7C124.2,121.2,123.3,122.2,122.3,123.1z M24.4,120.2c-0.9-1-1.8-2.1-2.6-3.1l0.8-0.6
	c0.8,1,1.7,2.1,2.6,3.1L24.4,120.2z M127.7,117.1l-0.8-0.6c0.8-1,1.6-2.1,2.4-3.2l0.8,0.6C129.4,114.9,128.6,116,127.7,117.1z
	 M19.4,113.8c-0.8-1.1-1.5-2.3-2.2-3.4l0.9-0.5c0.7,1.1,1.4,2.3,2.2,3.4L19.4,113.8z M132.4,110.4l-0.9-0.5c0.7-1.1,1.4-2.3,2-3.5
	l0.9,0.5C133.7,108,133.1,109.2,132.4,110.4z M15.2,106.9c-0.6-1.2-1.2-2.4-1.8-3.6l0.9-0.4c0.5,1.2,1.1,2.4,1.8,3.6L15.2,106.9z
	 M136.1,103.2l-0.9-0.4c0.6-1.2,1.1-2.5,1.5-3.7l0.9,0.4C137.2,100.7,136.7,101.9,136.1,103.2z M11.9,99.5c-0.5-1.3-0.9-2.6-1.3-3.8
	l1-0.3c0.4,1.3,0.8,2.5,1.3,3.8L11.9,99.5z M139,95.6l-1-0.3c0.4-1.3,0.8-2.6,1.1-3.9l1,0.2C139.8,93,139.4,94.3,139,95.6z
	 M9.4,91.7c-0.3-1.3-0.6-2.6-0.9-4l1-0.2c0.2,1.3,0.5,2.6,0.8,3.9L9.4,91.7z M141,87.7l-1-0.2c0.2-1.3,0.4-2.6,0.6-4l1,0.1
	C141.4,85,141.2,86.4,141,87.7z M8,83.8c-0.2-1.3-0.3-2.7-0.4-4l1-0.1c0.1,1.3,0.2,2.7,0.4,4L8,83.8z M141.9,79.6l-1-0.1
	c0.1-1.3,0.1-2.7,0.1-4v-0.2h1v0.2C142.1,76.9,142,78.3,141.9,79.6z M7.8,75.6l-0.3,0c0-1.3,0-2.7,0.1-4l1,0.1
	c-0.1,1.3-0.1,2.6-0.1,3.9L7.8,75.6z M140.9,71.4c-0.1-1.3-0.2-2.7-0.4-4l1-0.1c0.2,1.3,0.3,2.7,0.4,4L140.9,71.4z M8.9,67.7l-1-0.1
	c0.2-1.3,0.4-2.7,0.6-4l1,0.2C9.3,65,9.1,66.3,8.9,67.7z M140,63.4c-0.2-1.3-0.5-2.6-0.8-3.9l1-0.2c0.3,1.3,0.6,2.6,0.9,4L140,63.4z
	 M10.4,59.8l-1-0.2c0.3-1.3,0.7-2.6,1.1-3.9l1,0.3C11,57.2,10.7,58.5,10.4,59.8z M138,55.7c-0.4-1.3-0.8-2.5-1.3-3.8l0.9-0.4
	c0.5,1.3,0.9,2.6,1.3,3.8L138,55.7z M12.7,52.1l-0.9-0.4c0.5-1.3,1-2.5,1.6-3.8l0.9,0.4C13.7,49.6,13.2,50.9,12.7,52.1z M135.2,48.2
	c-0.5-1.2-1.1-2.4-1.8-3.6l0.9-0.5c0.6,1.2,1.2,2.4,1.8,3.6L135.2,48.2z M16,44.8l-0.9-0.5c0.6-1.2,1.3-2.4,2-3.5l0.9,0.5
	C17.3,42.5,16.6,43.6,16,44.8z M131.4,41.1c-0.7-1.1-1.4-2.3-2.2-3.4l0.8-0.6c0.8,1.1,1.5,2.3,2.2,3.4L131.4,41.1z M20.2,38
	l-0.8-0.6c0.8-1.1,1.6-2.2,2.4-3.3l0.8,0.6C21.7,35.8,20.9,36.9,20.2,38z M126.9,34.6c-0.8-1-1.7-2.1-2.6-3.1l0.7-0.7
	c0.9,1,1.8,2.1,2.6,3.1L126.9,34.6z M25.1,31.7L24.3,31c0.9-1,1.8-2,2.8-3l0.7,0.7C26.9,29.7,26,30.7,25.1,31.7z M121.6,28.6
	c-0.9-0.9-1.9-1.9-2.9-2.7l0.7-0.7c1,0.9,2,1.8,3,2.8L121.6,28.6z M30.7,26l-0.7-0.7c1-0.9,2.1-1.8,3.1-2.6l0.6,0.8
	C32.8,24.2,31.7,25.1,30.7,26z M115.6,23.3c-1-0.8-2.1-1.6-3.2-2.4l0.6-0.8c1.1,0.8,2.2,1.6,3.3,2.4L115.6,23.3z M37,21l-0.6-0.8
	c1.1-0.8,2.3-1.5,3.4-2.2l0.5,0.9C39.3,19.6,38.1,20.3,37,21z M109,18.8c-1.1-0.7-2.3-1.4-3.5-2l0.5-0.9c1.2,0.6,2.4,1.3,3.5,2
	L109,18.8z M43.9,16.9L43.4,16c1.2-0.6,2.4-1.2,3.6-1.8l0.4,0.9C46.3,15.7,45,16.3,43.9,16.9z M101.9,15c-1.2-0.5-2.5-1.1-3.7-1.5
	l0.4-0.9c1.3,0.5,2.5,1,3.8,1.6L101.9,15z M51.1,13.6l-0.4-0.9c1.3-0.5,2.6-0.9,3.8-1.3l0.3,1C53.7,12.7,52.4,13.1,51.1,13.6z
	 M94.4,12.2c-1.3-0.4-2.6-0.8-3.9-1.1l0.2-1c1.3,0.3,2.6,0.7,3.9,1.1L94.4,12.2z M58.8,11.2l-0.2-1c1.3-0.3,2.6-0.6,4-0.9l0.2,1
	C61.4,10.6,60.1,10.9,58.8,11.2z M86.6,10.3c-1.3-0.2-2.6-0.4-4-0.6l0.1-1c1.3,0.2,2.7,0.4,4,0.6L86.6,10.3z M66.7,9.8l-0.1-1
	c1.3-0.2,2.7-0.3,4-0.4l0.1,1C69.3,9.5,68,9.6,66.7,9.8z M78.6,9.4c-1.3-0.1-2.6-0.1-3.9-0.1h-0.1v-1h0.1c1.3,0,2.6,0,3.9,0.1
	L78.6,9.4z"/>
<g>
	<path class="st3" d="M68,99.4c-13.1,0-23.7-10.6-23.7-23.7c0-13.1,10.6-23.7,23.7-23.7"/>
	<path class="st1" d="M68,100.8c-13.9,0-25.2-11.3-25.2-25.2c0-13.9,11.3-25.2,25.2-25.2v2.9c-12.3,0-22.2,10-22.2,22.3
		c0,12.3,10,22.3,22.2,22.3V100.8z"/>
</g>
<g>
	<path class="st4" d="M81.9,51.9c13.1,0,23.7,10.6,23.7,23.7c0,13.1-10.6,23.7-23.7,23.7"/>
	<path class="st1" d="M81.9,100.8v-2.9c12.3,0,22.3-10,22.3-22.3c0-12.3-10-22.3-22.3-22.3v-2.9c13.9,0,25.2,11.3,25.2,25.2
		C107.1,89.5,95.7,100.8,81.9,100.8z"/>
</g>
<rect x="66.5" y="25.7" class="st1" width="2.9" height="75.1"/>
<rect x="79.6" y="25.7" class="st1" width="2.9" height="75.1"/>
<polygon class="st1" points="41.2,104 22.2,104 22.2,47.3 41.6,47.3 41.6,50.2 25.2,50.2 25.2,101.1 41.2,101.1 "/>
<polygon class="st1" points="127.3,104 108.3,104 108.3,101.1 124.3,101.1 124.3,50.2 107.9,50.2 107.9,47.3 127.3,47.3 "/>
</svg>
